<mxfile host="app.diagrams.net" agent="Mozilla/5.0 (Windows NT 10.0; Win64; x64) AppleWebKit/537.36 (KHTML, like Gecko) Chrome/130.0.0.0 Safari/537.36" version="24.7.17">
  <diagram id="C5RBs43oDa-KdzZeNtuy" name="Page-1">
    <mxGraphModel dx="1194" dy="760" grid="1" gridSize="10" guides="1" tooltips="1" connect="1" arrows="1" fold="1" page="1" pageScale="1" pageWidth="827" pageHeight="1169" math="0" shadow="0">
      <root>
        <mxCell id="WIyWlLk6GJQsqaUBKTNV-0" />
        <mxCell id="WIyWlLk6GJQsqaUBKTNV-1" parent="WIyWlLk6GJQsqaUBKTNV-0" />
        <mxCell id="ppnC-_Y9c7xVZ_JA70F7-1" value="" style="edgeStyle=orthogonalEdgeStyle;rounded=0;orthogonalLoop=1;jettySize=auto;html=1;" edge="1" parent="WIyWlLk6GJQsqaUBKTNV-1" source="WIyWlLk6GJQsqaUBKTNV-3" target="ppnC-_Y9c7xVZ_JA70F7-0">
          <mxGeometry relative="1" as="geometry" />
        </mxCell>
        <mxCell id="WIyWlLk6GJQsqaUBKTNV-3" value="Start" style="rounded=1;whiteSpace=wrap;html=1;fontSize=12;glass=0;strokeWidth=1;shadow=0;arcSize=50;" parent="WIyWlLk6GJQsqaUBKTNV-1" vertex="1">
          <mxGeometry x="370" y="120" width="120" height="40" as="geometry" />
        </mxCell>
        <mxCell id="ppnC-_Y9c7xVZ_JA70F7-3" value="" style="edgeStyle=orthogonalEdgeStyle;rounded=0;orthogonalLoop=1;jettySize=auto;html=1;" edge="1" parent="WIyWlLk6GJQsqaUBKTNV-1" source="ppnC-_Y9c7xVZ_JA70F7-0" target="ppnC-_Y9c7xVZ_JA70F7-2">
          <mxGeometry relative="1" as="geometry" />
        </mxCell>
        <mxCell id="ppnC-_Y9c7xVZ_JA70F7-0" value="suma = 0&amp;nbsp;&lt;div&gt;mulp = 1&lt;/div&gt;" style="shape=process;whiteSpace=wrap;html=1;backgroundOutline=1;rounded=1;glass=0;strokeWidth=1;shadow=0;" vertex="1" parent="WIyWlLk6GJQsqaUBKTNV-1">
          <mxGeometry x="370" y="170" width="120" height="60" as="geometry" />
        </mxCell>
        <mxCell id="ppnC-_Y9c7xVZ_JA70F7-5" value="" style="edgeStyle=orthogonalEdgeStyle;rounded=0;orthogonalLoop=1;jettySize=auto;html=1;" edge="1" parent="WIyWlLk6GJQsqaUBKTNV-1" source="ppnC-_Y9c7xVZ_JA70F7-2" target="ppnC-_Y9c7xVZ_JA70F7-4">
          <mxGeometry relative="1" as="geometry" />
        </mxCell>
        <mxCell id="ppnC-_Y9c7xVZ_JA70F7-2" value="ab" style="shape=parallelogram;perimeter=parallelogramPerimeter;whiteSpace=wrap;html=1;fixedSize=1;rounded=1;glass=0;strokeWidth=1;shadow=0;" vertex="1" parent="WIyWlLk6GJQsqaUBKTNV-1">
          <mxGeometry x="370" y="240" width="120" height="60" as="geometry" />
        </mxCell>
        <mxCell id="ppnC-_Y9c7xVZ_JA70F7-7" value="" style="edgeStyle=orthogonalEdgeStyle;rounded=0;orthogonalLoop=1;jettySize=auto;html=1;" edge="1" parent="WIyWlLk6GJQsqaUBKTNV-1" source="ppnC-_Y9c7xVZ_JA70F7-4" target="ppnC-_Y9c7xVZ_JA70F7-6">
          <mxGeometry relative="1" as="geometry" />
        </mxCell>
        <mxCell id="ppnC-_Y9c7xVZ_JA70F7-20" style="edgeStyle=orthogonalEdgeStyle;rounded=0;orthogonalLoop=1;jettySize=auto;html=1;entryX=0;entryY=0.5;entryDx=0;entryDy=0;" edge="1" parent="WIyWlLk6GJQsqaUBKTNV-1" source="ppnC-_Y9c7xVZ_JA70F7-4" target="ppnC-_Y9c7xVZ_JA70F7-18">
          <mxGeometry relative="1" as="geometry" />
        </mxCell>
        <mxCell id="ppnC-_Y9c7xVZ_JA70F7-4" value="ab[0] &lt; ab[1] + 1" style="rhombus;whiteSpace=wrap;html=1;rounded=1;glass=0;strokeWidth=1;shadow=0;arcSize=0;" vertex="1" parent="WIyWlLk6GJQsqaUBKTNV-1">
          <mxGeometry x="355" y="310" width="150" height="80" as="geometry" />
        </mxCell>
        <mxCell id="ppnC-_Y9c7xVZ_JA70F7-9" value="" style="edgeStyle=orthogonalEdgeStyle;rounded=0;orthogonalLoop=1;jettySize=auto;html=1;" edge="1" parent="WIyWlLk6GJQsqaUBKTNV-1" source="ppnC-_Y9c7xVZ_JA70F7-6" target="ppnC-_Y9c7xVZ_JA70F7-8">
          <mxGeometry relative="1" as="geometry" />
        </mxCell>
        <mxCell id="ppnC-_Y9c7xVZ_JA70F7-11" value="" style="edgeStyle=orthogonalEdgeStyle;rounded=0;orthogonalLoop=1;jettySize=auto;html=1;" edge="1" parent="WIyWlLk6GJQsqaUBKTNV-1" source="ppnC-_Y9c7xVZ_JA70F7-6" target="ppnC-_Y9c7xVZ_JA70F7-10">
          <mxGeometry relative="1" as="geometry" />
        </mxCell>
        <mxCell id="ppnC-_Y9c7xVZ_JA70F7-6" value="&amp;nbsp;ab[0] % 3 == 0" style="rhombus;whiteSpace=wrap;html=1;rounded=1;glass=0;strokeWidth=1;shadow=0;arcSize=0;" vertex="1" parent="WIyWlLk6GJQsqaUBKTNV-1">
          <mxGeometry x="190" y="310" width="150" height="80" as="geometry" />
        </mxCell>
        <mxCell id="ppnC-_Y9c7xVZ_JA70F7-13" style="edgeStyle=orthogonalEdgeStyle;rounded=0;orthogonalLoop=1;jettySize=auto;html=1;entryX=0.5;entryY=1;entryDx=0;entryDy=0;" edge="1" parent="WIyWlLk6GJQsqaUBKTNV-1" source="ppnC-_Y9c7xVZ_JA70F7-8" target="ppnC-_Y9c7xVZ_JA70F7-4">
          <mxGeometry relative="1" as="geometry">
            <Array as="points">
              <mxPoint x="120" y="480" />
              <mxPoint x="430" y="480" />
            </Array>
          </mxGeometry>
        </mxCell>
        <mxCell id="ppnC-_Y9c7xVZ_JA70F7-8" value="&lt;div&gt;suma += ab[0]&lt;/div&gt;&lt;div&gt;&amp;nbsp;mulp *= ab[0]&amp;nbsp;&lt;/div&gt;&lt;div&gt;ab[0] += 3&lt;/div&gt;" style="whiteSpace=wrap;html=1;rounded=1;glass=0;strokeWidth=1;shadow=0;arcSize=0;" vertex="1" parent="WIyWlLk6GJQsqaUBKTNV-1">
          <mxGeometry x="50" y="320" width="120" height="60" as="geometry" />
        </mxCell>
        <mxCell id="ppnC-_Y9c7xVZ_JA70F7-12" style="edgeStyle=orthogonalEdgeStyle;rounded=0;orthogonalLoop=1;jettySize=auto;html=1;entryX=0.5;entryY=1;entryDx=0;entryDy=0;" edge="1" parent="WIyWlLk6GJQsqaUBKTNV-1" source="ppnC-_Y9c7xVZ_JA70F7-10" target="ppnC-_Y9c7xVZ_JA70F7-4">
          <mxGeometry relative="1" as="geometry" />
        </mxCell>
        <mxCell id="ppnC-_Y9c7xVZ_JA70F7-10" value="ab[0] += 1" style="whiteSpace=wrap;html=1;rounded=1;glass=0;strokeWidth=1;shadow=0;arcSize=0;" vertex="1" parent="WIyWlLk6GJQsqaUBKTNV-1">
          <mxGeometry x="205" y="410" width="120" height="60" as="geometry" />
        </mxCell>
        <mxCell id="ppnC-_Y9c7xVZ_JA70F7-14" value="Yes" style="text;html=1;align=center;verticalAlign=middle;whiteSpace=wrap;rounded=0;" vertex="1" parent="WIyWlLk6GJQsqaUBKTNV-1">
          <mxGeometry x="320" y="320" width="60" height="30" as="geometry" />
        </mxCell>
        <mxCell id="ppnC-_Y9c7xVZ_JA70F7-15" value="Yes" style="text;html=1;align=center;verticalAlign=middle;whiteSpace=wrap;rounded=0;" vertex="1" parent="WIyWlLk6GJQsqaUBKTNV-1">
          <mxGeometry x="160" y="320" width="60" height="30" as="geometry" />
        </mxCell>
        <mxCell id="ppnC-_Y9c7xVZ_JA70F7-16" value="No" style="text;html=1;align=center;verticalAlign=middle;whiteSpace=wrap;rounded=0;" vertex="1" parent="WIyWlLk6GJQsqaUBKTNV-1">
          <mxGeometry x="260" y="380" width="60" height="30" as="geometry" />
        </mxCell>
        <mxCell id="ppnC-_Y9c7xVZ_JA70F7-17" value="No" style="text;html=1;align=center;verticalAlign=middle;whiteSpace=wrap;rounded=0;" vertex="1" parent="WIyWlLk6GJQsqaUBKTNV-1">
          <mxGeometry x="490" y="320" width="60" height="30" as="geometry" />
        </mxCell>
        <mxCell id="ppnC-_Y9c7xVZ_JA70F7-23" value="" style="edgeStyle=orthogonalEdgeStyle;rounded=0;orthogonalLoop=1;jettySize=auto;html=1;" edge="1" parent="WIyWlLk6GJQsqaUBKTNV-1" source="ppnC-_Y9c7xVZ_JA70F7-18" target="ppnC-_Y9c7xVZ_JA70F7-22">
          <mxGeometry relative="1" as="geometry" />
        </mxCell>
        <mxCell id="ppnC-_Y9c7xVZ_JA70F7-18" value="Вивід" style="shape=parallelogram;perimeter=parallelogramPerimeter;whiteSpace=wrap;html=1;fixedSize=1;size=30;rounded=1;" vertex="1" parent="WIyWlLk6GJQsqaUBKTNV-1">
          <mxGeometry x="530" y="320" width="120" height="60" as="geometry" />
        </mxCell>
        <mxCell id="ppnC-_Y9c7xVZ_JA70F7-22" value="End" style="whiteSpace=wrap;html=1;rounded=1;arcSize=50;" vertex="1" parent="WIyWlLk6GJQsqaUBKTNV-1">
          <mxGeometry x="520" y="400" width="120" height="60" as="geometry" />
        </mxCell>
      </root>
    </mxGraphModel>
  </diagram>
</mxfile>
